<svg width="692" height="98" viewBox="0 0 692 98" fill="none" xmlns="http://www.w3.org/2000/svg">
<path fill-rule="evenodd" clip-rule="evenodd" d="M123.961 97.28C118.457 97.28 114.126 96.6613 110.969 95.424C107.854 94.1867 105.572 92.5867 104.121 90.624C102.67 88.6187 101.753 86.4 101.369 83.968C101.028 81.536 100.857 79.1253 100.857 76.736V0.895996H122.169V73.92C122.169 75.9253 122.638 77.6747 123.577 79.168C124.516 80.6187 126.542 81.536 129.657 81.92L132.537 82.112V95.488C131.172 95.9573 129.764 96.3627 128.313 96.704C126.862 97.088 125.412 97.28 123.961 97.28ZM382.586 97.28C377.082 97.28 372.751 96.6613 369.594 95.424C366.479 94.1867 364.197 92.5867 362.746 90.624C361.295 88.6187 360.378 86.4 359.994 83.968C359.653 81.536 359.482 79.1253 359.482 76.736V0.895996H380.794V73.92C380.794 75.9253 381.263 77.6747 382.202 79.168C383.141 80.6187 385.167 81.536 388.282 81.92L391.162 82.112V95.488C389.797 95.9573 388.389 96.3627 386.938 96.704C385.487 97.088 384.037 97.28 382.586 97.28ZM420.271 96V29.824H405.295V96H420.271ZM420.463 18.24V3.52002H405.039V18.24H420.463ZM568.646 96V29.824H553.67V96H568.646ZM568.838 18.24V3.52002H553.414V18.24H568.838ZM625.089 40.832H610.305L610.369 78.784C610.369 80.7467 610.582 82.1974 611.009 83.136C611.478 84.032 612.204 84.6294 613.185 84.928C614.209 85.184 615.574 85.312 617.281 85.312H625.409V95.168C624.556 95.5094 623.254 95.808 621.505 96.064C619.798 96.3627 617.494 96.512 614.593 96.512C609.345 96.512 605.27 95.8294 602.369 94.464C599.51 93.056 597.526 91.072 596.417 88.512C595.308 85.952 594.753 82.9014 594.753 79.36V40.832H584.001V29.824H595.201L599.105 10.176H610.305V29.76H625.089V40.832ZM664.853 97.2799C660.245 97.2799 655.872 96.5546 651.733 95.1039C647.637 93.6106 644.181 91.2853 641.365 88.1279C638.592 84.9706 636.843 80.8959 636.117 75.9039H649.813C650.411 78.3359 651.456 80.3199 652.949 81.8559C654.485 83.392 656.298 84.5226 658.389 85.2479C660.48 85.9306 662.613 86.2719 664.789 86.2719C668.757 86.2719 671.957 85.5893 674.389 84.2239C676.864 82.8586 678.101 80.7466 678.101 77.8879C678.101 75.7973 677.419 74.1333 676.053 72.8959C674.688 71.6586 672.512 70.7199 669.525 70.0799L656.917 67.1999C651.328 65.9626 646.827 63.9146 643.413 61.0559C640.043 58.1973 638.336 54.1653 638.293 48.9599C638.251 45.0346 639.232 41.5359 641.237 38.4639C643.242 35.3919 646.229 32.9813 650.197 31.2319C654.165 29.4399 659.072 28.5439 664.917 28.5439C672.64 28.5439 678.827 30.2719 683.477 33.7279C688.128 37.1413 690.517 42.0266 690.645 48.3839H677.397C676.928 45.5253 675.584 43.3066 673.365 41.7279C671.146 40.1066 668.266 39.2959 664.725 39.2959C661.056 39.2959 658.048 39.9999 655.701 41.4079C653.354 42.8159 652.181 44.9706 652.181 47.8719C652.181 49.8773 653.077 51.4559 654.869 52.6079C656.661 53.7599 659.349 54.7413 662.933 55.5519L674.837 58.4319C678.25 59.2853 681.045 60.4373 683.221 61.8879C685.397 63.3386 687.104 64.9386 688.341 66.6879C689.578 68.3946 690.432 70.1653 690.901 71.9999C691.413 73.7919 691.669 75.4559 691.669 76.9919C691.669 81.2586 690.56 84.9066 688.341 87.9359C686.165 90.9226 683.072 93.2266 679.061 94.8479C675.05 96.4693 670.315 97.2799 664.853 97.2799ZM439.707 95.9999V29.8239H454.875V39.2959C456.795 36.3946 459.398 33.8773 462.683 31.7439C466.011 29.6106 470.235 28.5439 475.355 28.5439C477.702 28.5439 480.07 28.9493 482.459 29.7599C484.891 30.5706 487.131 31.7653 489.179 33.3439C491.27 34.9226 492.934 36.8853 494.171 39.2319C496.262 36.1173 499.035 33.5573 502.491 31.5519C505.99 29.5466 509.915 28.5439 514.267 28.5439C516.656 28.5439 519.11 28.9279 521.627 29.6959C524.187 30.4639 526.534 31.7439 528.667 33.5359C530.8 35.3279 532.528 37.7813 533.851 40.8959C535.174 43.9679 535.835 47.8293 535.835 52.4799V95.9999H520.283V54.3359C520.283 51.0506 519.707 48.4693 518.555 46.5919C517.403 44.7146 515.91 43.3919 514.075 42.6239C512.283 41.8133 510.363 41.4079 508.315 41.4079C506.48 41.4079 504.56 41.7706 502.555 42.4959C500.592 43.2213 498.907 44.4159 497.499 46.0799C496.134 47.7439 495.451 49.9839 495.451 52.7999V95.9999H479.899V51.8399C479.899 49.5359 479.302 47.6159 478.107 46.0799C476.912 44.5439 475.398 43.3919 473.563 42.6239C471.771 41.8133 469.936 41.4079 468.059 41.4079C466.139 41.4079 464.176 41.8133 462.171 42.6239C460.208 43.4346 458.566 44.6719 457.243 46.3359C455.92 47.9999 455.259 50.1546 455.259 52.7999V95.9999H439.707ZM293.61 94.9119C297.066 96.4906 300.863 97.2799 305.002 97.2799C309.61 97.2799 313.471 96.4053 316.586 94.6559C319.743 92.9066 322.389 89.7066 324.522 85.0559L326.378 95.9999H344.49V49.2799C344.49 45.0986 343.573 41.4719 341.738 38.3999C339.904 35.2853 336.874 32.8746 332.65 31.1679C328.426 29.4186 322.709 28.5439 315.498 28.5439C309.909 28.5439 304.853 29.2906 300.33 30.7839C295.85 32.2773 292.245 34.6026 289.514 37.7599C286.826 40.9173 285.354 44.9919 285.098 49.9839H302.954C303.935 47.2959 305.557 45.4613 307.818 44.4799C310.079 43.4559 312.298 42.9226 314.474 42.8799C317.631 42.8373 319.935 43.4773 321.386 44.7999C322.879 46.0799 323.626 48.0213 323.626 50.6239V54.0159L316.906 54.0799C305.045 54.1226 296.319 56.0853 290.73 59.9679C285.184 63.8506 282.41 69.3973 282.41 76.6079C282.41 81.0453 283.413 84.7999 285.418 87.8719C287.466 90.9439 290.197 93.2906 293.61 94.9119ZM316.714 82.4959C315.391 83.0079 314.005 83.2639 312.554 83.2639C309.952 83.2639 307.69 82.4746 305.77 80.8959C303.893 79.3173 302.954 77.1413 302.954 74.3679C302.954 71.9359 303.765 70.0373 305.386 68.6719C307.007 67.2639 308.991 66.2613 311.338 65.6639C313.728 65.0666 316.031 64.7679 318.25 64.7679L323.626 64.7039V73.7279C323.583 75.0079 323.263 76.2026 322.666 77.3119C322.069 78.4213 321.258 79.4453 320.234 80.3839C319.21 81.28 318.037 81.9839 316.714 82.4959ZM245.73 28.5439C251.575 28.5439 256.589 29.7813 260.77 32.2559C264.951 34.6879 268.173 37.9519 270.434 42.0479C272.738 46.1013 273.997 50.5386 274.21 55.3599H256.29C256.077 53.8666 255.586 52.3093 254.818 50.688C254.093 49.0666 253.005 47.7013 251.554 46.5919C250.103 45.4399 248.205 44.8639 245.858 44.8639C242.061 44.8639 238.989 46.3786 236.642 49.4079C234.338 52.3946 233.186 56.9173 233.186 62.9759C233.186 68.9493 234.381 73.6213 236.77 76.9919C239.159 80.3626 242.338 82.0479 246.306 82.0479C248.61 82.0479 250.466 81.4293 251.874 80.1919C253.325 78.9546 254.413 77.5253 255.138 75.9039C255.863 74.2826 256.333 72.8533 256.546 71.6159H273.89C273.762 76.2666 272.525 80.5333 270.178 84.4159C267.874 88.2986 264.653 91.4133 260.514 93.7599C256.375 96.1066 251.447 97.2799 245.73 97.2799C239.501 97.2799 233.911 95.8933 228.962 93.1199C224.055 90.3039 220.173 86.336 217.314 81.216C214.455 76.0959 213.026 70.1013 213.026 63.2319C213.026 56.3626 214.413 50.3466 217.186 45.1839C219.959 39.9786 223.799 35.9039 228.706 32.9599C233.655 30.0159 239.33 28.5439 245.73 28.5439ZM155.264 93.0559C160.171 95.8719 165.952 97.2799 172.608 97.2799C179.392 97.2799 185.237 95.8293 190.144 92.9279C195.051 89.9839 198.805 85.9733 201.408 80.8959C204.053 75.7759 205.376 69.9093 205.376 63.2959C205.376 56.4266 204.053 50.3893 201.408 45.1839C198.763 39.9359 194.987 35.8613 190.08 32.9599C185.216 30.0159 179.413 28.5439 172.672 28.5439C166.144 28.5439 160.405 29.9946 155.456 32.8959C150.507 35.7973 146.645 39.8719 143.872 45.1199C141.141 50.3253 139.776 56.3839 139.776 63.2959C139.776 70.0799 141.12 76.0319 143.808 81.1519C146.539 86.2293 150.357 90.1973 155.264 93.0559ZM179.648 78.5279C177.984 80.3626 175.659 81.2799 172.672 81.2799C169.6 81.2799 167.211 80.3413 165.504 78.4639C163.84 76.5439 162.667 74.1546 161.984 71.2959C161.344 68.3946 161.024 65.4933 161.024 62.5919C161.024 59.5199 161.365 56.5973 162.048 53.8239C162.773 51.0079 163.968 48.7253 165.632 46.9759C167.339 45.1839 169.685 44.2879 172.672 44.2879C175.744 44.2879 178.112 45.2053 179.776 47.0399C181.44 48.8319 182.592 51.1359 183.232 53.9519C183.872 56.7679 184.192 59.6479 184.192 62.5919C184.192 65.5786 183.851 68.5226 183.168 71.4239C182.485 74.2826 181.312 76.6506 179.648 78.5279ZM20.9198 91.392C27.3624 95.3174 34.8931 97.28 43.5118 97.28C48.5891 97.28 52.8131 96.64 56.1838 95.36C59.5544 94.0374 62.3491 92.416 64.5678 90.496C66.8291 88.576 68.7278 86.6987 70.2638 84.864V96H84.8558V47.36L44.2798 47.168V62.016H61.9438L60.9838 66.496C60.7278 67.8614 60.1731 69.2267 59.3198 70.592C58.4664 71.9574 57.3571 73.216 55.9918 74.368C54.6691 75.52 53.0904 76.4587 51.2558 77.184C49.4638 77.9094 47.4371 78.272 45.1758 78.272C42.7438 78.272 40.3118 77.8667 37.8798 77.056C35.4478 76.2027 33.2291 74.7307 31.2238 72.64C29.2184 70.5494 27.5971 67.6267 26.3598 63.872C25.1651 60.1174 24.5678 55.296 24.5678 49.408C24.5678 42.2827 25.4638 36.608 27.2558 32.384C29.0478 28.1174 31.4371 25.0454 34.4238 23.168C37.4104 21.2907 40.6958 20.352 44.2798 20.352C47.3944 20.352 50.1038 21.0134 52.4078 22.336C54.7544 23.6587 56.6318 25.4507 58.0398 27.712C59.4904 29.9307 60.5144 32.4054 61.1118 35.136H83.9598C83.8318 30.912 82.8291 26.8374 80.9518 22.912C79.0744 18.944 76.4078 15.4027 72.9518 12.288C69.5384 9.17336 65.4424 6.72003 60.6638 4.92802C55.9278 3.09336 50.6371 2.17603 44.7918 2.17603C36.0878 2.17603 28.4291 4.13869 21.8158 8.06403C15.2024 11.9894 10.0398 17.536 6.32777 24.704C2.61577 31.872 0.759766 40.32 0.759766 50.048C0.759766 59.52 2.5091 67.7974 6.00777 74.88C9.5491 81.9627 14.5198 87.4667 20.9198 91.392Z" fill="url(#paint0_linear_3215_241)"/>
<defs>
<linearGradient id="paint0_linear_3215_241" x1="0.759766" y1="49.728" x2="669" y2="49" gradientUnits="userSpaceOnUse">
<stop stop-color="#00420F"/>
<stop offset="1" stop-color="#548FA8"/>
</linearGradient>
</defs>
</svg>
